#!OML:ASF F:\VICON\USERDATA\INSTALL\rory3\rory3.ASF
:FULLY-SPECIFIED
:DEGREES
16
root 0.54102 17.9621 -26.9748 -3.54581 2.15934 0.0758477
lowerback 13.1582 -0.463558 -1.9062
upperback 0.373744 -0.816759 1.1871
thorax -6.95166 -0.314858 2.49028
lowerneck -16.1907 -2.90992 -2.00257
upperneck 21.9423 -3.63117 0.388868
head 9.66527 -1.80988 -0.00313997
rclavicle 1.7257e-014 -3.24019e-014
rhumerus -32.2585 -22.3982 -76.8909
rradius 24.2699
rwrist 5.20687
rhand -15.1721 16.6611
rfingers 7.12502
rthumb 10.9988 -13.0308
lclavicle 1.7257e-014 -3.24019e-014
lhumerus -27.2212 3.95035 81.1772
lradius 24.8643
lwrist 8.6492
lhand -26.2545 20.913
lfingers 7.12502
lthumb 0.299903 50.8926
rfemur -28.5859 -4.02938 22.3801
rtibia 67.5603
rfoot -9.35435 -7.0652
rtoes -2.48423
lfemur -5.33054 -1.15477 -24.8868
ltibia 25.8678
lfoot -12.5689 -0.645435
ltoes -21.4489
17
root 0.545658 17.9337 -26.8188 -3.5684 2.18776 0.288624
lowerback 13.3879 -0.296649 -2.03479
upperback 0.692275 -0.628485 1.02823
thorax -6.75148 -0.227531 2.35896
lowerneck -17.8488 -3.03543 -1.62328
upperneck 22.3035 -3.87012 0.336208
head 10.0977 -1.88387 -0.146446
rclavicle 1.10325e-014 -1.59028e-014
rhumerus -31.9691 -23.3712 -76.9047
rradius 24.2914
rwrist 5.88076
rhand -16.6408 21.8342
rfingers 7.12502
rthumb 9.58194 -7.92794
lclavicle 1.10325e-014 -1.59028e-014
lhumerus -25.9519 3.22716 81.2179
lradius 25.1076
lwrist 8.45444
lhand -27.4978 18.7892
lfingers 7.12502
lthumb -0.900923 48.7671
rfemur -29.2112 -3.94851 22.1921
rtibia 66.0631
rfoot -9.71864 -7.27943
rtoes -2.1208
lfemur -4.79866 -1.02725 -25.1627
ltibia 26.0193
lfoot -13.1748 -0.531896
ltoes -21.828
18
root 0.549748 17.915 -26.6606 -3.57927 2.21697 0.509646
lowerback 13.5762 -0.476319 -2.58994
upperback 0.0854113 -0.942955 1.26041
thorax -7.4773 -0.338451 2.99396
lowerneck -15.4453 -2.83727 -2.16419
upperneck 21.7833 -3.4849 0.31315
head 9.47029 -1.76816 0.0291479
rclavicle -1.27346e-014 0
rhumerus -33.4977 -22.0583 -76.3117
rradius 24.3998
rwrist 5.74511
rhand -17.2792 24.536
rfingers 7.12502
rthumb 8.96595 -5.25353
lclavicle -1.27346e-014 0
lhumerus -27.0114 3.82722 81.1593
lradius 25.4585
lwrist 8.2808
lhand -27.8377 16.9803
lfingers 7.12502
lthumb -1.22916 46.9566
rfemur -29.7482 -3.91897 21.988
rtibia 64.391
rfoot -10.3045 -7.57208
rtoes -2.59535
lfemur -4.18325 -0.795222 -25.4224
ltibia 25.986
lfoot -13.6708 -0.514426
ltoes -21.6787
19
root 0.556902 17.9037 -26.5068 -3.51781 2.50209 0.679909
lowerback 13.581 -0.56393 -2.7136
upperback 0.273904 -1.08076 1.21684
thorax -7.26665 -0.408473 3.04126
lowerneck -16.1804 -2.86416 -2.07315
upperneck 21.8413 -3.51442 0.254477
head 9.62516 -1.77738 -0.0217237
rclavicle -9.0447e-015 8.74653e-015
rhumerus -33.3068 -22.3973 -76.308
rradius 24.264
rwrist 5.8707
rhand -17.7863 24.2635
rfingers 7.12502
rthumb 8.47653 -5.54637
lclavicle -9.0447e-015 8.74653e-015
lhumerus -26.0678 3.45574 81.2313
lradius 25.5401
lwrist 8.66264
lhand -27.8213 16.8759
lfingers 7.12502
lthumb -1.21329 46.8522
rfemur -30.2367 -4.09082 21.8107
rtibia 62.5523
rfoot -10.9482 -8.1146
rtoes -3.22426
lfemur -3.60625 -0.848179 -25.6399
ltibia 25.7929
lfoot -13.9862 -0.515121
ltoes -21.3191
20
root 0.565021 17.9002 -26.3463 -3.44762 2.75671 0.732339
lowerback 13.4253 -0.700042 -2.76583
upperback 0.393088 -1.26191 1.25644
thorax -7.03639 -0.500672 3.14149
lowerneck -16.527 -2.80405 -2.09942
upperneck 21.7443 -3.41531 0.261351
head 9.65514 -1.73124 -0.0064103
rclavicle 1.9133e-015 7.95139e-016
rhumerus -33.2202 -22.5293 -76.2887
rradius 24.1625
rwrist 6.0623
rhand -18.1383 23.287
rfingers 7.12502
rthumb 8.13687 -6.53636
lclavicle 1.9133e-015 7.95139e-016
lhumerus -25.4972 3.30331 81.2441
lradius 25.7935
lwrist 8.75167
lhand -27.9909 17.844
lfingers 7.12502
lthumb -1.37708 47.8193
rfemur -30.5418 -4.16798 21.7463
rtibia 60.4732
rfoot -11.3868 -8.69243
rtoes -3.75312
lfemur -2.90273 -1.00418 -25.7487
ltibia 25.3876
lfoot -14.2752 -0.327716
ltoes -21.196
21
root 0.572003 17.9028 -26.1818 -3.2489 2.82703 0.866436
lowerback 13.2126 -0.850007 -3.01834
upperback 0.282522 -1.48681 1.37348
thorax -7.00945 -0.599159 3.44789
lowerneck -16.1073 -2.69576 -2.39366
upperneck 21.5718 -3.20251 0.29403
head 9.52008 -1.65507 0.088818
rclavicle -1.69215e-014 2.18663e-014
rhumerus -33.5915 -21.979 -76.1614
rradius 24.2009
rwrist 5.92707
rhand -18.1501 23.2013
rfingers 7.12502
rthumb 8.12551 -6.62246
lclavicle -1.69215e-014 2.18663e-014
lhumerus -25.4211 3.68891 81.1776
lradius 26.1396
lwrist 8.71395
lhand -27.3538 20.1589
lfingers 7.12502
lthumb -0.761773 50.1373
rfemur -30.9053 -4.06666 21.619
rtibia 58.1517
rfoot -11.1834 -9.27558
rtoes -4.06827
lfemur -2.21157 -1.08303 -25.9352
ltibia 24.8562
lfoot -14.4507 -0.0769103
ltoes -21.2802
